<?xml version="1.0" encoding="UTF-8"?>
<svg xmlns="http://www.w3.org/2000/svg" width="840" height="840" viewBox="0 0 840 840">
<defs>
<linearGradient id="gGrey" x1="0" y1="0" x2="0" y2="1"><stop offset="0%" stop-color="#e5e5ef"/><stop offset="100%" stop-color="#c6c6d8"/></linearGradient>
<linearGradient id="gBlue" x1="0" y1="0" x2="0" y2="1"><stop offset="0%" stop-color="#224fa0"/><stop offset="100%" stop-color="#133b7c"/></linearGradient>
<linearGradient id="gGreen" x1="0" y1="0" x2="0" y2="1"><stop offset="0%" stop-color="#1f5924"/><stop offset="100%" stop-color="#16431a"/></linearGradient>
<linearGradient id="gRed" x1="0" y1="0" x2="0" y2="1"><stop offset="0%" stop-color="#a73830"/><stop offset="100%" stop-color="#a2221a"/></linearGradient>
<linearGradient id="gOrange" x1="0" y1="0" x2="0" y2="1"><stop offset="0%" stop-color="#a77419"/><stop offset="100%" stop-color="#a76400"/></linearGradient>
</defs>
<rect width="840" height="840" fill="#080512"/>
<g transform="translate(20,20)"><rect width="100" height="100" rx="20" fill="url(#gGrey)" stroke="#8d8da7" stroke-width="5"/><path d="M16 12h68c8 0 14 6 14 14v10c0 4-2 6-6 6H22c-4 0-6-2-6-6V26c0-8 6-14 14-14z" fill="#fff" opacity=".18"/></g>
<g transform="translate(138,20)"><rect width="100" height="100" rx="20" fill="url(#gBlue)" stroke="#0e2a56" stroke-width="5"/><path d="M16 12h68c8 0 14 6 14 14v10c0 4-2 6-6 6H22c-4 0-6-2-6-6V26c0-8 6-14 14-14z" fill="#fff" opacity=".18"/></g>
<g transform="translate(256,20)"><rect width="100" height="100" rx="20" fill="url(#gBlue)" stroke="#0e2a56" stroke-width="5"/><path d="M16 12h68c8 0 14 6 14 14v10c0 4-2 6-6 6H22c-4 0-6-2-6-6V26c0-8 6-14 14-14z" fill="#fff" opacity=".18"/></g>
<g transform="translate(374,20)"><rect width="100" height="100" rx="20" fill="url(#gGreen)" stroke="#0e2d13" stroke-width="5"/><path d="M16 12h68c8 0 14 6 14 14v10c0 4-2 6-6 6H22c-4 0-6-2-6-6V26c0-8 6-14 14-14z" fill="#fff" opacity=".18"/></g>
<g transform="translate(492,20)"><rect width="100" height="100" rx="20" fill="url(#gGreen)" stroke="#0e2d13" stroke-width="5"/><path d="M16 12h68c8 0 14 6 14 14v10c0 4-2 6-6 6H22c-4 0-6-2-6-6V26c0-8 6-14 14-14z" fill="#fff" opacity=".18"/></g>
<g transform="translate(610,20)"><rect width="100" height="100" rx="20" fill="url(#gGreen)" stroke="#0e2d13" stroke-width="5"/><path d="M16 12h68c8 0 14 6 14 14v10c0 4-2 6-6 6H22c-4 0-6-2-6-6V26c0-8 6-14 14-14z" fill="#fff" opacity=".18"/></g>
<g transform="translate(728,20)"><rect width="100" height="100" rx="20" fill="url(#gGrey)" stroke="#8d8da7" stroke-width="5"/><path d="M16 12h68c8 0 14 6 14 14v10c0 4-2 6-6 6H22c-4 0-6-2-6-6V26c0-8 6-14 14-14z" fill="#fff" opacity=".18"/></g>
<g transform="translate(20,138)"><rect width="100" height="100" rx="20" fill="url(#gGrey)" stroke="#8d8da7" stroke-width="5"/><path d="M16 12h68c8 0 14 6 14 14v10c0 4-2 6-6 6H22c-4 0-6-2-6-6V26c0-8 6-14 14-14z" fill="#fff" opacity=".18"/></g>
<g transform="translate(138,138)"><rect width="100" height="100" rx="20" fill="url(#gGrey)" stroke="#8d8da7" stroke-width="5"/><path d="M16 12h68c8 0 14 6 14 14v10c0 4-2 6-6 6H22c-4 0-6-2-6-6V26c0-8 6-14 14-14z" fill="#fff" opacity=".18"/></g>
<g transform="translate(256,138)"><rect width="100" height="100" rx="20" fill="url(#gBlue)" stroke="#0e2a56" stroke-width="5"/><path d="M16 12h68c8 0 14 6 14 14v10c0 4-2 6-6 6H22c-4 0-6-2-6-6V26c0-8 6-14 14-14z" fill="#fff" opacity=".18"/></g>
<g transform="translate(374,138)"><rect width="100" height="100" rx="20" fill="url(#gBlue)" stroke="#0e2a56" stroke-width="5"/><path d="M16 12h68c8 0 14 6 14 14v10c0 4-2 6-6 6H22c-4 0-6-2-6-6V26c0-8 6-14 14-14z" fill="#fff" opacity=".18"/></g>
<g transform="translate(492,138)"><rect width="100" height="100" rx="20" fill="url(#gGreen)" stroke="#0e2d13" stroke-width="5"/><path d="M16 12h68c8 0 14 6 14 14v10c0 4-2 6-6 6H22c-4 0-6-2-6-6V26c0-8 6-14 14-14z" fill="#fff" opacity=".18"/></g>
<g transform="translate(610,138)"><rect width="100" height="100" rx="20" fill="url(#gGrey)" stroke="#8d8da7" stroke-width="5"/><path d="M16 12h68c8 0 14 6 14 14v10c0 4-2 6-6 6H22c-4 0-6-2-6-6V26c0-8 6-14 14-14z" fill="#fff" opacity=".18"/></g>
<g transform="translate(728,138)"><rect width="100" height="100" rx="20" fill="url(#gGrey)" stroke="#8d8da7" stroke-width="5"/><path d="M16 12h68c8 0 14 6 14 14v10c0 4-2 6-6 6H22c-4 0-6-2-6-6V26c0-8 6-14 14-14z" fill="#fff" opacity=".18"/></g>
<g transform="translate(20,256)"><rect width="100" height="100" rx="20" fill="url(#gGrey)" stroke="#8d8da7" stroke-width="5"/><path d="M16 12h68c8 0 14 6 14 14v10c0 4-2 6-6 6H22c-4 0-6-2-6-6V26c0-8 6-14 14-14z" fill="#fff" opacity=".18"/></g>
<g transform="translate(138,256)"><rect width="100" height="100" rx="20" fill="url(#gGrey)" stroke="#8d8da7" stroke-width="5"/><path d="M16 12h68c8 0 14 6 14 14v10c0 4-2 6-6 6H22c-4 0-6-2-6-6V26c0-8 6-14 14-14z" fill="#fff" opacity=".18"/></g>
<g transform="translate(256,256)"><rect width="100" height="100" rx="20" fill="url(#gGrey)" stroke="#8d8da7" stroke-width="5"/><path d="M16 12h68c8 0 14 6 14 14v10c0 4-2 6-6 6H22c-4 0-6-2-6-6V26c0-8 6-14 14-14z" fill="#fff" opacity=".18"/></g>
<g transform="translate(374,256)"><rect width="100" height="100" rx="20" fill="url(#gBlue)" stroke="#0e2a56" stroke-width="5"/><path d="M16 12h68c8 0 14 6 14 14v10c0 4-2 6-6 6H22c-4 0-6-2-6-6V26c0-8 6-14 14-14z" fill="#fff" opacity=".18"/></g>
<g transform="translate(492,256)"><rect width="100" height="100" rx="20" fill="url(#gGrey)" stroke="#8d8da7" stroke-width="5"/><path d="M16 12h68c8 0 14 6 14 14v10c0 4-2 6-6 6H22c-4 0-6-2-6-6V26c0-8 6-14 14-14z" fill="#fff" opacity=".18"/></g>
<g transform="translate(610,256)"><rect width="100" height="100" rx="20" fill="url(#gGrey)" stroke="#8d8da7" stroke-width="5"/><path d="M16 12h68c8 0 14 6 14 14v10c0 4-2 6-6 6H22c-4 0-6-2-6-6V26c0-8 6-14 14-14z" fill="#fff" opacity=".18"/></g>
<g transform="translate(728,256)"><rect width="100" height="100" rx="20" fill="url(#gGrey)" stroke="#8d8da7" stroke-width="5"/><path d="M16 12h68c8 0 14 6 14 14v10c0 4-2 6-6 6H22c-4 0-6-2-6-6V26c0-8 6-14 14-14z" fill="#fff" opacity=".18"/></g>
<g transform="translate(20,374)"><rect width="100" height="100" rx="20" fill="url(#gGrey)" stroke="#8d8da7" stroke-width="5"/><path d="M16 12h68c8 0 14 6 14 14v10c0 4-2 6-6 6H22c-4 0-6-2-6-6V26c0-8 6-14 14-14z" fill="#fff" opacity=".18"/></g>
<g transform="translate(138,374)"><rect width="100" height="100" rx="20" fill="url(#gGrey)" stroke="#8d8da7" stroke-width="5"/><path d="M16 12h68c8 0 14 6 14 14v10c0 4-2 6-6 6H22c-4 0-6-2-6-6V26c0-8 6-14 14-14z" fill="#fff" opacity=".18"/></g>
<g transform="translate(256,374)"><rect width="100" height="100" rx="20" fill="url(#gGrey)" stroke="#8d8da7" stroke-width="5"/><path d="M16 12h68c8 0 14 6 14 14v10c0 4-2 6-6 6H22c-4 0-6-2-6-6V26c0-8 6-14 14-14z" fill="#fff" opacity=".18"/></g>
<g transform="translate(374,374)"><rect width="100" height="100" rx="20" fill="url(#gGrey)" stroke="#8d8da7" stroke-width="5"/><path d="M16 12h68c8 0 14 6 14 14v10c0 4-2 6-6 6H22c-4 0-6-2-6-6V26c0-8 6-14 14-14z" fill="#fff" opacity=".18"/></g>
<g transform="translate(492,374)"><rect width="100" height="100" rx="20" fill="url(#gGrey)" stroke="#8d8da7" stroke-width="5"/><path d="M16 12h68c8 0 14 6 14 14v10c0 4-2 6-6 6H22c-4 0-6-2-6-6V26c0-8 6-14 14-14z" fill="#fff" opacity=".18"/></g>
<g transform="translate(610,374)"><rect width="100" height="100" rx="20" fill="url(#gGrey)" stroke="#8d8da7" stroke-width="5"/><path d="M16 12h68c8 0 14 6 14 14v10c0 4-2 6-6 6H22c-4 0-6-2-6-6V26c0-8 6-14 14-14z" fill="#fff" opacity=".18"/></g>
<g transform="translate(728,374)"><rect width="100" height="100" rx="20" fill="url(#gGrey)" stroke="#8d8da7" stroke-width="5"/><path d="M16 12h68c8 0 14 6 14 14v10c0 4-2 6-6 6H22c-4 0-6-2-6-6V26c0-8 6-14 14-14z" fill="#fff" opacity=".18"/></g>
<g transform="translate(20,492)"><rect width="100" height="100" rx="20" fill="url(#gGrey)" stroke="#8d8da7" stroke-width="5"/><path d="M16 12h68c8 0 14 6 14 14v10c0 4-2 6-6 6H22c-4 0-6-2-6-6V26c0-8 6-14 14-14z" fill="#fff" opacity=".18"/></g>
<g transform="translate(138,492)"><rect width="100" height="100" rx="20" fill="url(#gGrey)" stroke="#8d8da7" stroke-width="5"/><path d="M16 12h68c8 0 14 6 14 14v10c0 4-2 6-6 6H22c-4 0-6-2-6-6V26c0-8 6-14 14-14z" fill="#fff" opacity=".18"/></g>
<g transform="translate(256,492)"><rect width="100" height="100" rx="20" fill="url(#gRed)" stroke="#781313" stroke-width="5"/><path d="M16 12h68c8 0 14 6 14 14v10c0 4-2 6-6 6H22c-4 0-6-2-6-6V26c0-8 6-14 14-14z" fill="#fff" opacity=".18"/></g>
<g transform="translate(374,492)"><rect width="100" height="100" rx="20" fill="url(#gGrey)" stroke="#8d8da7" stroke-width="5"/><path d="M16 12h68c8 0 14 6 14 14v10c0 4-2 6-6 6H22c-4 0-6-2-6-6V26c0-8 6-14 14-14z" fill="#fff" opacity=".18"/></g>
<g transform="translate(492,492)"><rect width="100" height="100" rx="20" fill="url(#gOrange)" stroke="#8e4300" stroke-width="5"/><path d="M16 12h68c8 0 14 6 14 14v10c0 4-2 6-6 6H22c-4 0-6-2-6-6V26c0-8 6-14 14-14z" fill="#fff" opacity=".18"/></g>
<g transform="translate(610,492)"><rect width="100" height="100" rx="20" fill="url(#gGrey)" stroke="#8d8da7" stroke-width="5"/><path d="M16 12h68c8 0 14 6 14 14v10c0 4-2 6-6 6H22c-4 0-6-2-6-6V26c0-8 6-14 14-14z" fill="#fff" opacity=".18"/></g>
<g transform="translate(728,492)"><rect width="100" height="100" rx="20" fill="url(#gGrey)" stroke="#8d8da7" stroke-width="5"/><path d="M16 12h68c8 0 14 6 14 14v10c0 4-2 6-6 6H22c-4 0-6-2-6-6V26c0-8 6-14 14-14z" fill="#fff" opacity=".18"/></g>
<g transform="translate(20,610)"><rect width="100" height="100" rx="20" fill="url(#gGrey)" stroke="#8d8da7" stroke-width="5"/><path d="M16 12h68c8 0 14 6 14 14v10c0 4-2 6-6 6H22c-4 0-6-2-6-6V26c0-8 6-14 14-14z" fill="#fff" opacity=".18"/></g>
<g transform="translate(138,610)"><rect width="100" height="100" rx="20" fill="url(#gGrey)" stroke="#8d8da7" stroke-width="5"/><path d="M16 12h68c8 0 14 6 14 14v10c0 4-2 6-6 6H22c-4 0-6-2-6-6V26c0-8 6-14 14-14z" fill="#fff" opacity=".18"/></g>
<g transform="translate(256,610)"><rect width="100" height="100" rx="20" fill="url(#gRed)" stroke="#781313" stroke-width="5"/><path d="M16 12h68c8 0 14 6 14 14v10c0 4-2 6-6 6H22c-4 0-6-2-6-6V26c0-8 6-14 14-14z" fill="#fff" opacity=".18"/></g>
<g transform="translate(374,610)"><rect width="100" height="100" rx="20" fill="url(#gRed)" stroke="#781313" stroke-width="5"/><path d="M16 12h68c8 0 14 6 14 14v10c0 4-2 6-6 6H22c-4 0-6-2-6-6V26c0-8 6-14 14-14z" fill="#fff" opacity=".18"/></g>
<g transform="translate(492,610)"><rect width="100" height="100" rx="20" fill="url(#gOrange)" stroke="#8e4300" stroke-width="5"/><path d="M16 12h68c8 0 14 6 14 14v10c0 4-2 6-6 6H22c-4 0-6-2-6-6V26c0-8 6-14 14-14z" fill="#fff" opacity=".18"/></g>
<g transform="translate(610,610)"><rect width="100" height="100" rx="20" fill="url(#gGrey)" stroke="#8d8da7" stroke-width="5"/><path d="M16 12h68c8 0 14 6 14 14v10c0 4-2 6-6 6H22c-4 0-6-2-6-6V26c0-8 6-14 14-14z" fill="#fff" opacity=".18"/></g>
<g transform="translate(728,610)"><rect width="100" height="100" rx="20" fill="url(#gGrey)" stroke="#8d8da7" stroke-width="5"/><path d="M16 12h68c8 0 14 6 14 14v10c0 4-2 6-6 6H22c-4 0-6-2-6-6V26c0-8 6-14 14-14z" fill="#fff" opacity=".18"/></g>
<g transform="translate(20,728)"><rect width="100" height="100" rx="20" fill="url(#gGrey)" stroke="#8d8da7" stroke-width="5"/><path d="M16 12h68c8 0 14 6 14 14v10c0 4-2 6-6 6H22c-4 0-6-2-6-6V26c0-8 6-14 14-14z" fill="#fff" opacity=".18"/></g>
<g transform="translate(138,728)"><rect width="100" height="100" rx="20" fill="url(#gGrey)" stroke="#8d8da7" stroke-width="5"/><path d="M16 12h68c8 0 14 6 14 14v10c0 4-2 6-6 6H22c-4 0-6-2-6-6V26c0-8 6-14 14-14z" fill="#fff" opacity=".18"/></g>
<g transform="translate(256,728)"><rect width="100" height="100" rx="20" fill="url(#gRed)" stroke="#781313" stroke-width="5"/><path d="M16 12h68c8 0 14 6 14 14v10c0 4-2 6-6 6H22c-4 0-6-2-6-6V26c0-8 6-14 14-14z" fill="#fff" opacity=".18"/></g>
<g transform="translate(374,728)"><rect width="100" height="100" rx="20" fill="url(#gOrange)" stroke="#8e4300" stroke-width="5"/><path d="M16 12h68c8 0 14 6 14 14v10c0 4-2 6-6 6H22c-4 0-6-2-6-6V26c0-8 6-14 14-14z" fill="#fff" opacity=".18"/></g>
<g transform="translate(492,728)"><rect width="100" height="100" rx="20" fill="url(#gOrange)" stroke="#8e4300" stroke-width="5"/><path d="M16 12h68c8 0 14 6 14 14v10c0 4-2 6-6 6H22c-4 0-6-2-6-6V26c0-8 6-14 14-14z" fill="#fff" opacity=".18"/></g>
<g transform="translate(610,728)"><rect width="100" height="100" rx="20" fill="url(#gGrey)" stroke="#8d8da7" stroke-width="5"/><path d="M16 12h68c8 0 14 6 14 14v10c0 4-2 6-6 6H22c-4 0-6-2-6-6V26c0-8 6-14 14-14z" fill="#fff" opacity=".18"/></g>
<g transform="translate(728,728)"><rect width="100" height="100" rx="20" fill="url(#gGrey)" stroke="#8d8da7" stroke-width="5"/><path d="M16 12h68c8 0 14 6 14 14v10c0 4-2 6-6 6H22c-4 0-6-2-6-6V26c0-8 6-14 14-14z" fill="#fff" opacity=".18"/></g>
</svg>
